<?xml version="1.0" encoding="utf-8"?>
<!-- Generator: Adobe Illustrator 24.2.0, SVG Export Plug-In . SVG Version: 6.00 Build 0)  -->
<svg version="1.1" id="Layer_1" xmlns="http://www.w3.org/2000/svg" xmlns:xlink="http://www.w3.org/1999/xlink" x="0px" y="0px"
	 viewBox="0 0 16 16" style="enable-background:new 0 0 16 16;" xml:space="preserve">
<style type="text/css">
	.st0{fill:#FF9100;}
	.st1{display:none;fill:#FFFFFF;}
	.st2{fill:#FFFFFF;}
	.st3{display:none;fill:#83B44D;}
</style>
<circle class="st0" cx="8" cy="8" r="6.4"/>
<path class="st1" d="M11.9,6.6H9.8c-0.2,0-0.4-0.2-0.4-0.4V4.1c0-0.2-0.2-0.4-0.4-0.4H7c-0.2,0-0.4,0.2-0.4,0.4v2.2
	c0,0.2-0.2,0.4-0.4,0.4H4.1C3.9,6.6,3.7,6.8,3.7,7v2c0,0.2,0.2,0.4,0.4,0.4h2.2c0.2,0,0.4,0.2,0.4,0.4V12c0,0.2,0.2,0.4,0.4,0.4h2
	c0.2,0,0.4-0.2,0.4-0.4V9.8c0-0.2,0.2-0.4,0.4-0.4h2.2c0.2,0,0.4-0.2,0.4-0.4V7C12.3,6.8,12.1,6.6,11.9,6.6L11.9,6.6z"/>
<path class="st2" d="M11.6,11c0.3-0.2,0.3-0.6,0-1c-0.3-0.4-0.8-0.2-1.4,0l-1.4,1V3.2c0-0.4-0.3-0.6-0.8-0.6S7.2,2.8,7.2,3.2V11
	l-1.4-1c-0.3-0.2-0.8-0.2-1.4,0c-0.3,0.2-0.3,0.6,0,1l3.1,2.3c0.3,0.2,0.8,0.2,1.4,0L11.6,11L11.6,11z"/>
<path class="st3" d="M12.3,13.7c0,0.3-0.2,0.5-0.5,0.5H4.2c-0.3,0-0.5-0.2-0.5-0.5V2.3c0-0.3,0.2-0.5,0.5-0.5H9v2.4c0,0.5,0.4,1,1,1
	h2.4V8h1.4V5c0-0.5-0.2-1-0.6-1.4l-2.7-2.7c-0.4-0.4-0.8-0.6-1.3-0.6h-5c-1.1,0-1.9,0.9-1.9,1.9v11.4c0,1.1,0.9,1.9,1.9,1.9h7.6
	c1.1,0,1.9-0.9,1.9-1.9v-2.4h-1.4C12.3,11.2,12.3,13.7,12.3,13.7z"/>
</svg>
